<svg width="14" height="14" viewBox="0 0 14 14" fill="none" xmlns="http://www.w3.org/2000/svg">
<path d="M13.6357 9.89746L13.627 1.07324C13.627 0.458008 13.2227 0.0361328 12.5898 0.0361328H3.75684C3.15918 0.0361328 2.74609 0.484375 2.74609 1.01172C2.74609 1.53027 3.19434 1.96094 3.73047 1.96094H6.88574L10.6123 1.83789L9.0127 3.24414L0.671875 11.5938C0.469727 11.8047 0.355469 12.0508 0.355469 12.2969C0.355469 12.8154 0.830078 13.3076 1.36621 13.3076C1.6123 13.3076 1.8584 13.2021 2.06934 13L10.4189 4.65039L11.8428 3.05078L11.6934 6.61914V9.92383C11.6934 10.4688 12.124 10.9258 12.6602 10.9258C13.1875 10.9258 13.6357 10.4775 13.6357 9.89746Z" fill="#0070C9"/>
</svg>
