<svg width="28" height="28" viewBox="0 0 28 28" fill="none" xmlns="http://www.w3.org/2000/svg">
<path d="M20.6182 16.8975V8.07324C20.6182 7.4668 20.2139 7.05371 19.5898 7.05371H10.7656C10.1768 7.05371 9.76367 7.49316 9.76367 8.01172C9.76367 8.52148 10.2119 8.94336 10.7393 8.94336H13.8682L17.6562 8.82031L16.0566 10.2266L7.68066 18.6113C7.47852 18.8135 7.37305 19.0596 7.37305 19.3057C7.37305 19.8154 7.83887 20.29 8.36621 20.29C8.6123 20.29 8.84961 20.1934 9.05176 19.9912L17.4365 11.6064L18.8604 10.0068L18.7109 13.6455V16.9238C18.7109 17.4512 19.1328 17.9082 19.6602 17.9082C20.1787 17.9082 20.6182 17.4688 20.6182 16.8975Z" fill="#503E30"/>
</svg>
