<svg width="28" height="28" viewBox="0 0 28 28" fill="none" xmlns="http://www.w3.org/2000/svg">
<path d="M14 22.7334C18.9658 22.7334 23.0791 18.6289 23.0791 13.6543C23.0791 8.68848 18.9658 4.5752 13.9912 4.5752C9.02539 4.5752 4.9209 8.68848 4.9209 13.6543C4.9209 18.6289 9.03418 22.7334 14 22.7334ZM14 20.9492C9.95703 20.9492 6.71387 17.6973 6.71387 13.6543C6.71387 9.61133 9.94824 6.36816 13.9912 6.36816C18.0342 6.36816 21.2861 9.61133 21.2949 13.6543C21.2949 17.6973 18.043 20.9492 14 20.9492ZM18.5352 13.6455C18.5352 13.417 18.4385 13.2324 18.2451 13.0303L15.2656 10.0859C15.1162 9.94531 14.9492 9.88379 14.7383 9.88379C14.334 9.88379 14.0352 10.1826 14.0352 10.5957C14.0352 10.8066 14.123 10.9912 14.2637 11.123L15.3184 12.1514L16.3115 12.9512L14.5098 12.8721H10.1943C9.76367 12.8721 9.43848 13.1973 9.43848 13.6455C9.43848 14.0938 9.75488 14.4277 10.1943 14.4277H14.5098L16.3203 14.3486L15.3271 15.1484L14.2637 16.168C14.1143 16.2998 14.0352 16.4844 14.0352 16.7041C14.0352 17.1084 14.334 17.4248 14.7383 17.4248C14.9492 17.4248 15.1162 17.3457 15.2656 17.2051L18.2451 14.2695C18.4297 14.085 18.5352 13.8916 18.5352 13.6455Z" fill="#494949"/>
</svg>
