<svg enable-background="new 0 0 49 44" height="44" viewBox="0 0 49 44" width="49" xmlns="http://www.w3.org/2000/svg"><path d="m0 0h49v44h-49z" fill="none"/><path d="m7.3477 25.9987v-6.457h-.0704l-2.666 6.457h-.8906l-2.666-6.457h-.0703v6.457h-.9844v-8.4551h1.2246l2.8945 7.0547h.0938l2.8945-7.0547h1.2246v8.4551zm2.7539-1.7696c0-1.1309.832-1.7812 2.3027-1.8691l1.8223-.1113v-.5742c0-.7793-.4863-1.207-1.4297-1.207-.7559 0-1.2832.2871-1.4238.7852h-1.0195c.1348-1.0137 1.1309-1.6816 2.4785-1.6816 1.541 0 2.4023.791 2.4023 2.1035v4.3242h-.9609v-.9318h-.0938c-.4102.6738-1.1016 1.043-1.9453 1.043-1.2246 0-2.1328-.7266-2.1328-1.8809zm4.125-.5859v-.5801l-1.6992.1113c-.9609.0645-1.3828.3984-1.3828 1.0312 0 .6445.5449 1.0195 1.2773 1.0195 1.0371.0001 1.8047-.6796 1.8047-1.5819zm3.9902-3.1172v5.4727h-1.0078v-6.3164h4.043v.8438h-3.0352zm4.0195 3.7031c0-1.1309.832-1.7812 2.3027-1.8691l1.8223-.1113v-.5742c0-.7793-.4863-1.207-1.4297-1.207-.7559 0-1.2832.2871-1.4238.7852h-1.0195c.1348-1.0137 1.1309-1.6816 2.4785-1.6816 1.541 0 2.4023.791 2.4023 2.1035v4.3242h-.9609v-.9318h-.0938c-.4102.6738-1.1016 1.043-1.9453 1.043-1.2246 0-2.1328-.7266-2.1328-1.8809zm4.125-.5859v-.5801l-1.6992.1113c-.9609.0645-1.3828.3984-1.3828 1.0312 0 .6445.5449 1.0195 1.2773 1.0195 1.0372.0001 1.8047-.6796 1.8047-1.5819zm2.625.7383h1.0371c.123.5508.6797.873 1.4707.873.9316 0 1.4824-.4395 1.4824-1.0664 0-.6914-.5156-1.0078-1.4824-1.0078h-.9844v-.8438h.9844c.8086 0 1.2598-.3223 1.2598-.9844 0-.5332-.4102-.9258-1.2246-.9258-.7383 0-1.2891.3281-1.3711.8379h-.9961c.1348-1.0371 1.0605-1.6934 2.3672-1.6934 1.4121 0 2.2207.6973 2.2207 1.7051 0 .6445-.416 1.2246-1.043 1.3711v.0938c.8379.1816 1.2715.6914 1.2715 1.3945 0 1.1719-1.0137 1.9688-2.4844 1.9688-1.3711 0-2.3964-.6738-2.5078-1.7226zm6.6797 1.6172v-6.3164h1.0078v4.7109h.0938l3.1465-4.7109h1.0078v6.3164h-1.0078v-4.7109h-.0938l-3.1465 4.7109zm11.4199-2.8594h-3.1523v2.8594h-1.0078v-6.3164h1.0078v2.6133h3.1523v-2.6133h1.0078v6.3164h-1.0078z" fill="#fff"/></svg>