<svg enable-background="new 0 0 56 44" height="44" viewBox="0 0 56 44" width="56" xmlns="http://www.w3.org/2000/svg"><path d="m0 0h56v44h-56z" fill="none"/><path d="m4.2754 26v-7.5059h-2.7246v-.9492h6.5039v.9492h-2.7246v7.5059zm7.7314 0-3.1172-8.4551h1.1074l2.4844 7.0898h.0938l2.4844-7.0898h1.1074l-3.1172 8.4551zm8.7134 0v-6.3164h1.0078v4.7109h.0938l3.1465-4.7109h1.0078v6.3164h-1.0078v-4.7109h-.0938l-3.1465 4.7109zm10.6172 1.6699h-.9785v-2.6191h.627c.6152-.3281.8438-1.0781.9082-2.1855l.3223-5.3203h5.3496v7.5059h1.0547v2.6191h-.9785v-1.67h-6.3047v1.6699zm.9551-2.6894v.0703h4.2188v-6.5566h-3.3516l-.2754 4.3945c-.0586.9551-.1758 1.5937-.5918 2.0918zm7.3096-2.1387c0-2.0332 1.1133-3.2695 2.9121-3.2695s2.9121 1.2363 2.9121 3.2695c0 2.0273-1.1133 3.2695-2.9121 3.2695s-2.9121-1.2422-2.9121-3.2695zm4.7812 0c0-1.5-.6738-2.3613-1.8691-2.3613s-1.8691.8613-1.8691 2.3613c0 1.4941.6738 2.3613 1.8691 2.3613s1.8691-.8672 1.8691-2.3613zm2.6167 3.1582v-6.3164h1.2246l2.2617 4.8984h.0938l2.2676-4.8984h1.1777v6.3164h-1.0137v-4.4941h-.1113l-1.998 4.3184h-.7852l-1.998-4.3184h-.1113v4.4941z" fill="#fff"/></svg>