<svg enable-background="new 0 0 76 43" height="43" viewBox="0 0 76 43" width="76" xmlns="http://www.w3.org/2000/svg"><path d="m0 0h76v43h-76z" fill="none"/><path d="m4.6401 27v-10.6333h-3.8598v-1.3447h9.2139v1.3447h-3.8599v10.6333zm11.106 0-4.416-11.978h1.5688l3.5195 10.0439h.1328l3.5195-10.0439h1.5688l-4.4159 11.978zm11.9355 0v-8.9482h1.4277v6.6738h.1328l4.4575-6.6738h1.4277v8.9482h-1.4277v-6.6738h-.1328l-4.4574 6.6738zm14.6333 2.3657h-1.3862v-3.7104h.8882c.8716-.4648 1.1953-1.5273 1.2866-3.0962l.4565-7.5371h7.5786v10.6333h1.4941v3.7104h-1.3862v-2.3657h-8.9316zm1.3531-3.81v.0996h5.9766v-9.2886h-4.748l-.3901 6.2256c-.0832 1.353-.2492 2.2578-.8385 2.9634zm10.0258-3.0298c0-2.8804 1.5771-4.6318 4.1255-4.6318s4.1255 1.7515 4.1255 4.6318c0 2.8721-1.5771 4.6318-4.1255 4.6318s-4.1255-1.7598-4.1255-4.6318zm6.7735 0c0-2.125-.9546-3.3452-2.6479-3.3452s-2.6479 1.2202-2.6479 3.3452c0 2.1167.9546 3.3452 2.6479 3.3452s2.6479-1.2285 2.6479-3.3452zm3.5264 4.4741v-8.9482h1.7349l3.2041 6.9395h.1328l3.2124-6.9395h1.6685v8.9482h-1.436v-6.3667h-.1577l-2.8307 6.1177h-1.1123l-2.8306-6.1177h-.1577v6.3667z" fill="#fff"/></svg>