<svg enable-background="new 0 0 116 43" height="43" viewBox="0 0 116 43" width="116" xmlns="http://www.w3.org/2000/svg"><path d="m0 0h116v43h-116z" fill="none"/><path d="m4.7534 27v-10.6333h-3.8599v-1.3447h9.2139v1.3447h-3.8599v10.6333zm5.1177-4.4741c0-2.8804 1.5771-4.6318 4.1255-4.6318s4.1255 1.7515 4.1255 4.6318c0 2.8721-1.5771 4.6318-4.1255 4.6318s-4.1255-1.7598-4.1255-4.6318zm6.7734 0c0-2.125-.9546-3.3452-2.6479-3.3452s-2.6479 1.2202-2.6479 3.3452c0 2.1167.9546 3.3452 2.6479 3.3452s2.6479-1.2285 2.6479-3.3452zm2.9683 4.5488c-.2573 0-.4233-.0498-.5229-.0913v-1.3115c.0747.0249.2407.0664.4482.0664.8882 0 1.2285-1.0376 1.3447-2.6978l.3486-4.9888h5.8521v8.9483h-1.4277v-7.7529h-3.1294l-.2822 3.8267c-.1827 2.457-.7721 4.0009-2.6314 4.0009zm9.959-9.0229h1.4277v2.8721h1.7681c2.0503 0 3.3618 1.1787 3.3618 3.0381s-1.3115 3.038-3.3618 3.038h-3.1958zm1.4277 4.0673v3.6855h1.7681c1.1787 0 1.9341-.7305 1.9341-1.8428 0-1.1206-.7637-1.8428-1.9341-1.8428h-1.7681zm8.3301.8052v4.0757h-1.4277v-8.9482h1.4277v3.7437h.4731l3.4614-3.7437h1.7349l-4.0176 4.2168 4.1753 4.7314h-1.8511l-3.5029-4.0757zm6.438-.3984c0-2.8804 1.5771-4.6318 4.1255-4.6318s4.1255 1.7515 4.1255 4.6318c0 2.8721-1.5771 4.6318-4.1255 4.6318s-4.1255-1.7598-4.1255-4.6318zm6.7734 0c0-2.125-.9546-3.3452-2.6479-3.3452s-2.6479 1.2202-2.6479 3.3452c0 2.1167.9546 3.3452 2.6479 3.3452s2.6479-1.2285 2.6479-3.3452zm7.9263 4.4741v-8.9482h3.7935c1.6934 0 2.6812.9214 2.6812 2.3325 0 .8882-.6226 1.7349-1.4609 1.9092v.1328c1.1372.1577 1.8594.9546 1.8594 2.0005 0 1.5605-1.1372 2.5732-3.063 2.5732zm1.4277-5.1631h1.9507c1.1621 0 1.6851-.4482 1.6851-1.3032 0-.772-.4482-1.2866-1.4526-1.2866h-2.1832zm0 3.9678h2.3491c1.0957 0 1.6768-.498 1.6768-1.4028 0-.9463-.6641-1.3696-1.9507-1.3696h-2.0752zm18.626-2.2329h-4.7646l-1.2037 3.4282h-1.5688l4.416-11.978h1.4775l4.416 11.978h-1.5688zm-4.3247-1.27h3.8848l-1.876-5.3457h-.1328zm16.7451.2241c0 2.7974-1.4858 4.6318-3.7603 4.6318-1.2783 0-2.3076-.5562-2.7974-1.5024h-.1327v4.333h-1.4277v-11.9365h1.3613v1.4941h.1328c.5728-1.0293 1.6436-1.6519 2.8638-1.6519 2.2826 0 3.7602 1.8179 3.7602 4.6319zm-1.4776 0c0-2.0918-.9795-3.3452-2.6147-3.3452-1.6187 0-2.6396 1.2866-2.6396 3.3452 0 2.0503 1.021 3.3452 2.6313 3.3452 1.6436 0 2.623-1.2534 2.623-3.3452zm11.419 0c0 2.7974-1.4858 4.6318-3.7603 4.6318-1.2783 0-2.3076-.5562-2.7974-1.5024h-.1328v4.333h-1.4277v-11.9365h1.3613v1.4941h.1328c.5728-1.0293 1.6436-1.6519 2.8638-1.6519 2.2828 0 3.7603 1.8179 3.7603 4.6319zm-1.4775 0c0-2.0918-.9795-3.3452-2.6147-3.3452-1.6187 0-2.6396 1.2866-2.6396 3.3452 0 2.0503 1.021 3.3452 2.6313 3.3452 1.6435 0 2.623-1.2534 2.623-3.3452zm3.3647-8.0269h1.4277v12.501h-1.4277zm11.0889 10.1851c-.415 1.5273-1.8096 2.4736-3.7686 2.4736-2.4819 0-4.0342-1.793-4.0342-4.6235 0-2.814 1.5771-4.6401 4.0342-4.6401 2.4155 0 3.8848 1.7183 3.8848 4.499v.5479h-6.4331v.0664c.0747 1.7681 1.0625 2.8887 2.5815 2.8887 1.1538 0 1.9341-.4233 2.3076-1.2119h1.4278zm-6.3169-2.897h4.9307c-.0332-1.5854-.9795-2.6313-2.3989-2.6313-1.4278 0-2.4239 1.0459-2.5318 2.6313z" fill="#fff"/></svg>