<svg enable-background="new 0 0 68 44" height="44" viewBox="0 0 68 44" width="68" xmlns="http://www.w3.org/2000/svg"><path d="m0 0h68v44h-68z" fill="none"/><g fill="#fff"><path d="m7.7207 26v-7.4941h-4.5234v7.4941h-1.0606v-8.4551h6.627v8.4551z"/><path d="m10.4717 22.8418c0-2.0332 1.1133-3.2695 2.9121-3.2695s2.9121 1.2363 2.9121 3.2695c0 2.0273-1.1133 3.2695-2.9121 3.2695s-2.9121-1.2422-2.9121-3.2695zm4.7812 0c0-1.5-.6738-2.3613-1.8691-2.3613s-1.8691.8613-1.8691 2.3613c0 1.4941.6738 2.3613 1.8691 2.3613s1.8691-.8672 1.8691-2.3613z"/><path d="m17.0664 27.6699v-2.5137h.5273c.4629-.3047.6914-1.1016.75-1.9512l.2461-3.5215h4.3066v5.4727h1.0078v2.5137h-.9492v-1.6699h-4.9395v1.6699zm4.8223-7.1426h-2.3965l-.1992 2.7012c-.0586.7676-.2227 1.4414-.5215 1.834v.0938h3.1172z"/><path d="m24.3062 27.6699v-2.5137h.5273c.4629-.3047.6914-1.1016.75-1.9512l.2461-3.5215h4.3066v5.4727h1.0078v2.5137h-.9492v-1.6699h-4.9395v1.6699zm4.8222-7.1426h-2.3965l-.1992 2.7012c-.0586.7676-.2227 1.4414-.5215 1.834v.0938h3.1172z"/><path d="m37.5454 24.3652c-.293 1.0781-1.2773 1.7461-2.6602 1.7461-1.752 0-2.8477-1.2656-2.8477-3.2637 0-1.9863 1.1133-3.2754 2.8477-3.2754 1.7051 0 2.7422 1.2129 2.7422 3.1758v.3867h-4.541v.0469c.0527 1.248.75 2.0391 1.8223 2.0391.8145 0 1.3652-.2988 1.6289-.8555zm-4.459-2.0449h3.4805c-.0234-1.1191-.6914-1.8574-1.6934-1.8574-1.0078 0-1.7109.7383-1.7871 1.8574z"/><path d="m44.937 22.8418c0 1.9746-1.0488 3.2695-2.6543 3.2695-.9023 0-1.6289-.3926-1.9746-1.0605h-.0938v3.0586h-1.0078v-8.4258h.9609v1.0547h.0938c.4043-.7266 1.1602-1.166 2.0215-1.166 1.6113 0 2.6543 1.2832 2.6543 3.2695zm-1.043 0c0-1.4766-.6914-2.3613-1.8457-2.3613-1.1426 0-1.8633.9082-1.8633 2.3613 0 1.4473.7207 2.3613 1.8574 2.3613 1.1602 0 1.8516-.8847 1.8516-2.3613z"/><path d="m45.813 26 2.7246-3.3281-2.6309-2.9883h1.2246l2.209 2.6602h.375v-2.6602h.9844v2.6602h.375l2.209-2.6602h1.207l-2.6133 2.9648 2.7422 3.3516h-1.2773l-2.2676-2.8945h-.375v2.8945h-.9844v-2.8945h-.375l-2.2675 2.8945z"/><path d="m56.8145 23.123v2.877h-1.0078v-6.3164h1.0078v2.6426h.334l2.4434-2.6426h1.2246l-2.8359 2.9766 2.9471 3.3398h-1.3066l-2.4727-2.877z"/><path d="m61.8389 24.2305c0-1.1309.832-1.7812 2.3027-1.8691l1.8223-.1113v-.5742c0-.7793-.4863-1.207-1.4297-1.207-.7559 0-1.2832.2871-1.4238.7852h-1.0195c.1348-1.0137 1.1309-1.6816 2.4785-1.6816 1.541 0 2.4023.791 2.4023 2.1035v4.324h-.9609v-.9316h-.0938c-.4102.6738-1.1016 1.043-1.9453 1.043-1.2246-.0001-2.1328-.7266-2.1328-1.8809zm4.125-.586v-.5801l-1.6992.1113c-.9609.0645-1.3828.3984-1.3828 1.0312 0 .6445.5449 1.0195 1.2773 1.0195 1.0371.0002 1.8047-.6795 1.8047-1.5819z"/></g></svg>