<svg enable-background="new 0 0 88 44" height="44" viewBox="0 0 88 44" width="88" xmlns="http://www.w3.org/2000/svg"><path d="m0 0h88v44h-88z" fill="none"/><path d="m3.9724 26v-7.5059h-2.7246v-.9492h6.5039v.9492h-2.7246v7.5059zm4.9604-3.1582c0-2.0332 1.1133-3.2695 2.9121-3.2695s2.9121 1.2363 2.9121 3.2695c0 2.0273-1.1133 3.2695-2.9121 3.2695s-2.9121-1.2422-2.9121-3.2695zm4.7813 0c0-1.5-.6738-2.3613-1.8691-2.3613s-1.8691.8613-1.8691 2.3613c0 1.4941.6738 2.3613 1.8691 2.3613s1.8691-.8672 1.8691-2.3613zm2.2763 3.2109c-.1816 0-.2988-.0352-.3691-.0645v-.9258c.0527.0176.1699.0469.3164.0469.627 0 .8672-.7324.9492-1.9043l.2461-3.5215h4.1309v6.3165h-1.0078v-5.4727h-2.209l-.1992 2.7012c-.129 1.7344-.545 2.8242-1.8575 2.8242zm7.1573-6.3691h1.0078v2.0273h1.248c1.4473 0 2.373.832 2.373 2.1445s-.9257 2.1446-2.373 2.1446h-2.2559v-6.3164zm1.0078 2.8711v2.6016h1.248c.832 0 1.3652-.5156 1.3652-1.3008 0-.791-.5391-1.3008-1.3652-1.3008zm6.0791.5683v2.877h-1.0078v-6.3164h1.0078v2.6426h.334l2.4434-2.6426h1.2246l-2.8359 2.9766 2.9472 3.3398h-1.3066l-2.4727-2.877zm5.0835-.2812c0-2.0332 1.1133-3.2695 2.9121-3.2695s2.9121 1.2363 2.9121 3.2695c0 2.0273-1.1133 3.2695-2.9121 3.2695s-2.9121-1.2422-2.9121-3.2695zm4.7812 0c0-1.5-.6738-2.3613-1.8691-2.3613s-1.8691.8613-1.8691 2.3613c0 1.4941.6738 2.3613 1.8691 2.3613s1.8691-.8672 1.8691-2.3613zm5.8828 3.1582v-6.3164h2.6777c1.1953 0 1.8926.6504 1.8926 1.6465 0 .627-.4395 1.2246-1.0312 1.3477v.0938c.8027.1113 1.3125.6738 1.3125 1.4121 0 1.1016-.8027 1.8164-2.1621 1.8164h-2.6895zm1.0078-3.6445h1.377c.8203 0 1.1895-.3164 1.1895-.9199 0-.5449-.3164-.9082-1.0254-.9082h-1.541v1.8281zm0 2.8007h1.6582c.7734 0 1.1836-.3516 1.1836-.9902 0-.668-.4688-.9668-1.377-.9668h-1.4648zm13.4361-1.5761h-3.3633l-.8496 2.4199h-1.1074l3.1172-8.4551h1.043l3.1171 8.4551h-1.1074zm-3.0528-.8965h2.7422l-1.3242-3.7734h-.0938zm11.9737.1582c0 1.9746-1.0488 3.2695-2.6543 3.2695-.9023 0-1.6289-.3926-1.9746-1.0605h-.0938v3.0586h-1.0078v-8.4258h.9609v1.0547h.0938c.4043-.7266 1.1602-1.166 2.0215-1.166 1.6113 0 2.6543 1.2832 2.6543 3.2695zm-1.043 0c0-1.4766-.6914-2.3613-1.8457-2.3613-1.1426 0-1.8633.9082-1.8633 2.3613 0 1.4473.7207 2.3613 1.8574 2.3613 1.1602 0 1.8516-.8847 1.8516-2.3613zm8.2354 0c0 1.9746-1.0488 3.2695-2.6543 3.2695-.9023 0-1.6289-.3926-1.9746-1.0605h-.0938v3.0586h-1.0078v-8.4258h.9609v1.0547h.0938c.4043-.7266 1.1602-1.166 2.0215-1.166 1.6113 0 2.6543 1.2832 2.6543 3.2695zm-1.043 0c0-1.4766-.6914-2.3613-1.8457-2.3613-1.1426 0-1.8633.9082-1.8633 2.3613 0 1.4473.7207 2.3613 1.8574 2.3613 1.1602 0 1.8516-.8847 1.8516-2.3613zm2.5635-5.666h1.0078v8.8242h-1.0078zm8.0366 7.1894c-.293 1.0781-1.2773 1.7461-2.6602 1.7461-1.752 0-2.8477-1.2656-2.8477-3.2637 0-1.9863 1.1133-3.2754 2.8477-3.2754 1.7051 0 2.7422 1.2129 2.7422 3.1758v.3867h-4.541v.0469c.0527 1.248.75 2.0391 1.8223 2.0391.8145 0 1.3652-.2988 1.6289-.8555zm-4.459-2.0449h3.4805c-.0234-1.1191-.6914-1.8574-1.6934-1.8574-1.0078 0-1.7109.7383-1.7871 1.8574z" fill="#fff"/></svg>