<svg xmlns="http://www.w3.org/2000/svg" width="93" height="43" viewBox="0 0 93 43"><path fill="none" d="M0 0h93v43H0z"/><path d="M8.79 27V16.38H2.48V27H1V15.02h9.25V27H8.79zm3.83-4.47c0-2.88 1.55-4.63 4.06-4.63s4.07 1.75 4.07 4.63c0 2.87-1.55 4.63-4.06 4.63s-4.07-1.76-4.07-4.63zm6.68 0c0-2.12-.94-3.34-2.61-3.34s-2.61 1.22-2.61 3.34.94 3.35 2.61 3.35 2.61-1.24 2.61-3.35zm2.52 6.84V25.8h.74c.65-.43.96-1.56 1.05-2.76l.34-4.99h6.01v7.75h1.41v3.56h-1.33V27h-6.89v2.37h-1.33zm6.73-10.12H25.2l-.28 3.83c-.08 1.09-.31 2.04-.73 2.6v.13h4.35l.01-6.56zm3.37 10.12V25.8h.74c.65-.43.97-1.56 1.05-2.76l.34-4.99h6.01v7.75h1.41v3.56h-1.33V27h-6.89v2.37h-1.33zm6.73-10.12H35.3l-.28 3.83c-.08 1.09-.31 2.04-.73 2.6v.13h4.35l.01-6.56zm11.75 5.43c-.43 1.54-1.78 2.47-3.71 2.47-2.45 0-3.98-1.79-3.98-4.62 0-2.81 1.55-4.64 3.98-4.64 2.38 0 3.83 1.72 3.83 4.5v.55h-6.34v.07c.07 1.77 1.05 2.89 2.54 2.89 1.14 0 1.91-.42 2.27-1.21l1.41-.01zm-6.23-2.89h4.86c-.03-1.59-.96-2.63-2.36-2.63-1.41 0-2.39 1.04-2.5 2.63zm16.53.74c0 2.8-1.46 4.63-3.71 4.63-1.26 0-2.27-.56-2.76-1.5h-.13v4.33h-1.41V18.05h1.34v1.49h.13c.56-1.03 1.62-1.65 2.82-1.65 2.27 0 3.72 1.82 3.72 4.64zm-1.45 0c0-2.09-.96-3.34-2.58-3.34-1.59 0-2.6 1.29-2.6 3.34s1.01 3.35 2.59 3.35c1.62-.01 2.59-1.26 2.59-3.35zm2.8 4.47l3.89-4.71-3.75-4.23h1.71l3.17 3.77h.44v-3.77h1.37v3.77h.44l3.17-3.77h1.68l-3.73 4.2 3.9 4.74h-1.78l-3.25-4.1h-.44V27H67.5v-4.1h-.45L63.81 27h-1.76zm15.48-4.08V27h-1.41v-8.95h1.41v3.74h.38l3.49-3.74h1.71l-4.04 4.22 4.2 4.73h-1.82l-3.53-4.08h-.39zm7.01 1.57c0-1.6 1.16-2.52 3.21-2.65l2.54-.16v-.81c0-1.1-.68-1.71-2-1.71-1.05 0-1.79.41-1.99 1.11h-1.42c.19-1.44 1.58-2.38 3.46-2.38 2.15 0 3.35 1.12 3.35 2.98V27h-1.34v-1.32h-.13c-.57.96-1.54 1.48-2.71 1.48-1.71 0-2.97-1.03-2.97-2.67zm5.75-.83v-.82l-2.37.16c-1.34.09-1.93.56-1.93 1.46 0 .91.76 1.44 1.78 1.44 1.45 0 2.52-.96 2.52-2.24z" fill="#fff"/></svg>