<svg enable-background="new 0 0 70 44" height="44" viewBox="0 0 70 44" width="70" xmlns="http://www.w3.org/2000/svg"><path d="m0 0h70v44h-70z" fill="none"/><path d="m5.651 23.5801h-3.3633l-.8496 2.4199h-1.1074l3.1172-8.4551h1.043l3.1171 8.4551h-1.1074zm-3.0528-.8965h2.7422l-1.3242-3.7734h-.0937zm7.3628.4394v2.877h-1.0078v-6.3164h1.0078v2.6426h.334l2.4434-2.6426h1.2246l-2.8359 2.9766 2.9472 3.3398h-1.3066l-2.4727-2.877zm9.6065-1.5058c-.1641-.627-.7207-1.1367-1.6289-1.1367-1.1367 0-1.8516.9082-1.8516 2.3379 0 1.459.7266 2.3848 1.8516 2.3848.8496 0 1.4414-.3926 1.6289-1.1074h1.0195c-.1816 1.1602-1.125 2.0156-2.6426 2.0156-1.7695 0-2.9004-1.2832-2.9004-3.293 0-1.9688 1.125-3.2461 2.8945-3.2461 1.5352 0 2.4727.9199 2.6484 2.0449zm7.6963 2.748c-.293 1.0781-1.2773 1.7461-2.6602 1.7461-1.752 0-2.8477-1.2656-2.8477-3.2637 0-1.9863 1.1133-3.2754 2.8477-3.2754 1.7051 0 2.7422 1.2129 2.7422 3.1758v.3867h-4.541v.0469c.0527 1.248.75 2.0391 1.8223 2.0391.8145 0 1.3652-.2988 1.6289-.8555zm-4.459-2.0449h3.4805c-.0234-1.1191-.6914-1.8574-1.6934-1.8574-1.0078 0-1.7109.7383-1.7871 1.8574zm10.3271-.7031c-.1641-.627-.7207-1.1367-1.6289-1.1367-1.1367 0-1.8516.9082-1.8516 2.3379 0 1.459.7266 2.3848 1.8516 2.3848.8496 0 1.4414-.3926 1.6289-1.1074h1.0195c-.1816 1.1602-1.125 2.0156-2.6426 2.0156-1.7695 0-2.9004-1.2832-2.9004-3.293 0-1.9688 1.125-3.2461 2.8945-3.2461 1.5352 0 2.4727.9199 2.6484 2.0449zm6.7124 0c-.1641-.627-.7207-1.1367-1.6289-1.1367-1.1367 0-1.8516.9082-1.8516 2.3379 0 1.459.7266 2.3848 1.8516 2.3848.8496 0 1.4414-.3926 1.6289-1.1074h1.0195c-.1816 1.1602-1.125 2.0156-2.6426 2.0156-1.7695 0-2.9004-1.2832-2.9004-3.293 0-1.9688 1.125-3.2461 2.8945-3.2461 1.5352 0 2.4727.9199 2.6484 2.0449zm2.5928 6.6328v-.8613c.123.0234.2812.0293.4219.0293.5801 0 .8965-.2754 1.1602-1.0371l.1172-.375-2.3379-6.3223h1.0898l1.7344 5.1973h.0938l1.7285-5.1973h1.0723l-2.4668 6.7031c-.5391 1.4648-1.043 1.8984-2.1621 1.8984-.1349.0001-.3107-.0117-.4513-.0351zm6.0498-4.0195c0-1.1309.832-1.7812 2.3027-1.8691l1.8223-.1113v-.5742c0-.7793-.4863-1.207-1.4297-1.207-.7559 0-1.2832.2871-1.4238.7852h-1.0195c.1348-1.0137 1.1309-1.6816 2.4785-1.6816 1.541 0 2.4023.791 2.4023 2.1035v4.324h-.9609v-.9316h-.0938c-.4102.6738-1.1016 1.043-1.9453 1.043-1.2246-.0001-2.1328-.7266-2.1328-1.8809zm4.125-.586v-.5801l-1.6992.1113c-.9609.0645-1.3828.3984-1.3828 1.0312 0 .6445.5449 1.0195 1.2773 1.0195 1.0371.0002 1.8047-.6795 1.8047-1.5819zm8.5986-.8027c0 1.9746-1.0488 3.2695-2.6543 3.2695-.9023 0-1.6289-.3926-1.9746-1.0605h-.0938v3.0586h-1.0078v-8.4258h.9609v1.0547h.0938c.4043-.7266 1.1602-1.166 2.0215-1.166 1.6114 0 2.6543 1.2832 2.6543 3.2695zm-1.0429 0c0-1.4766-.6914-2.3613-1.8457-2.3613-1.1426 0-1.8633.9082-1.8633 2.3613 0 1.4473.7207 2.3613 1.8574 2.3613 1.1602 0 1.8516-.8847 1.8516-2.3613zm2.6167-3.1582h1.0078v2.0273h1.248c1.4473 0 2.373.832 2.373 2.1445s-.9257 2.1446-2.373 2.1446h-2.2559v-6.3164zm1.0078 2.8711v2.6016h1.248c.832 0 1.3652-.5156 1.3652-1.3008 0-.791-.5391-1.3008-1.3652-1.3008zm4.5176-2.8711h1.0078v6.3164h-1.0078z" fill="#fff"/></svg>