<svg enable-background="new 0 0 67 43" height="43" viewBox="0 0 67 43" width="67" xmlns="http://www.w3.org/2000/svg"><path d="m0 0h67v43h-67z" fill="none"/><path d="m10.5092 26.9975v-9.1475h-.0996l-3.7773 9.1475h-1.2618l-3.7764-9.1475h-.0996v9.1475h-1.3945v-11.9775h1.7344l4.1006 9.9932h.1328l4.1006-9.9932h1.7354v11.9775zm3.5273-2.5068c0-1.6025 1.1787-2.5234 3.2617-2.6475l2.582-.1582v-.8135c0-1.1035-.6895-1.71-2.0254-1.71-1.0713 0-1.8184.4072-2.0176 1.1123h-1.4442c.1914-1.4355 1.6025-2.3818 3.5117-2.3818 2.1826 0 3.4033 1.1201 3.4033 2.9795v6.126h-1.3613v-1.3203h-.1328c-.5811.9551-1.5605 1.4785-2.7559 1.4785-1.7353 0-3.0215-1.0293-3.0215-2.665zm5.8438-.8301v-.8213l-2.4072.1572c-1.3613.0908-1.959.5645-1.959 1.4609 0 .9131.7715 1.4443 1.8096 1.4443 1.4687.0001 2.5566-.9628 2.5566-2.2411zm5.2783-4.416v7.7529h-1.4277v-8.9482h5.7275v1.1953zm5.5693 5.2461c0-1.6025 1.1787-2.5234 3.2627-2.6475l2.5811-.1582v-.8135c0-1.1035-.6885-1.71-2.0254-1.71-1.0703 0-1.8174.4072-2.0166 1.1123h-1.4443c.1904-1.4355 1.6016-2.3818 3.5107-2.3818 2.1836 0 3.4033 1.1201 3.4033 2.9795v6.126h-1.3613v-1.3203h-.1328c-.5811.9551-1.5605 1.4785-2.7559 1.4785-1.7344 0-3.0215-1.0293-3.0215-2.665zm5.8438-.8301v-.8213l-2.4072.1572c-1.3613.0908-1.959.5645-1.959 1.4609 0 .9131.7725 1.4443 1.8096 1.4443 1.4697.0001 2.5566-.9628 2.5566-2.2411zm3.3447 1.0459h1.4697c.1738.7803.9629 1.2363 2.083 1.2363 1.3203 0 2.1006-.6221 2.1006-1.5098 0-.9805-.7305-1.4277-2.1006-1.4277h-1.3945v-1.1953h1.3945c1.1455 0 1.7852-.457 1.7852-1.3945 0-.7559-.5811-1.3115-1.7354-1.3115-1.0459 0-1.8262.4648-1.9424 1.1865h-1.4111c.1914-1.4688 1.5029-2.3984 3.3535-2.3984 2.001 0 3.1465.9873 3.1465 2.415 0 .9131-.5898 1.7354-1.4775 1.9424v.1328c1.1865.2578 1.8008.9795 1.8008 1.9756 0 1.6602-1.4355 2.7891-3.5195 2.7891-1.9424 0-3.3946-.9541-3.5528-2.4405zm9.0889 2.291v-8.9482h1.4277v6.6738h.1328l4.458-6.6738h1.4277v8.9482h-1.4277v-6.6738h-.1328l-4.458 6.6738zm15.8047-4.0507h-4.4658v4.0508h-1.4277v-8.9482h1.4277v3.7021h4.4658v-3.7021h1.4277v8.9482h-1.4277z" fill="#fff"/></svg>