<svg enable-background="new 0 0 96 43" height="43" viewBox="0 0 96 43" width="96" xmlns="http://www.w3.org/2000/svg"><path d="m0 0h96v43h-96z" fill="none"/><path d="m8.3918 23.5718h-4.7647l-1.2036 3.4282h-1.5688l4.416-11.978h1.4775l4.4161 11.978h-1.5689zm-4.3247-1.27h3.8848l-1.876-5.3457h-.1328zm10.2261.6225v4.0757h-1.4277v-8.9482h1.4277v3.7437h.4731l3.4614-3.7437h1.7349l-4.0176 4.2168 4.1753 4.7314h-1.8511l-3.5029-4.0757zm12.7812-2.1333c-.2324-.8882-1.021-1.6104-2.3076-1.6104-1.6104 0-2.623 1.2866-2.623 3.312 0 2.0669 1.0293 3.3784 2.623 3.3784 1.2036 0 2.042-.5562 2.3076-1.5688h1.4443c-.2573 1.6436-1.5938 2.8555-3.7437 2.8555-2.5068 0-4.1089-1.8179-4.1089-4.665 0-2.7891 1.5938-4.5986 4.1006-4.5986 2.1748 0 3.5029 1.3032 3.752 2.897h-1.4443zm10.7349 3.8931c-.415 1.5273-1.8096 2.4736-3.7686 2.4736-2.4819 0-4.0342-1.793-4.0342-4.6235 0-2.814 1.5771-4.6401 4.0342-4.6401 2.4155 0 3.8848 1.7183 3.8848 4.499v.5479h-6.4331v.0664c.0747 1.7681 1.0625 2.8887 2.5815 2.8887 1.1538 0 1.9341-.4233 2.3076-1.2119h1.4278zm-6.3169-2.897h4.9307c-.0332-1.5854-.9795-2.6313-2.3989-2.6313-1.4278 0-2.4239 1.0459-2.5318 2.6313zm14.4809-.9961c-.2324-.8882-1.021-1.6104-2.3076-1.6104-1.6104 0-2.623 1.2866-2.623 3.312 0 2.0669 1.0293 3.3784 2.623 3.3784 1.2036 0 2.042-.5562 2.3076-1.5688h1.4443c-.2573 1.6436-1.5938 2.8555-3.7437 2.8555-2.5068 0-4.1089-1.8179-4.1089-4.665 0-2.7891 1.5938-4.5986 4.1006-4.5986 2.1748 0 3.5029 1.3032 3.752 2.897h-1.4443zm9.3487 0c-.2324-.8882-1.021-1.6104-2.3076-1.6104-1.6104 0-2.623 1.2866-2.623 3.312 0 2.0669 1.0293 3.3784 2.623 3.3784 1.2036 0 2.042-.5562 2.3076-1.5688h1.4443c-.2573 1.6436-1.5938 2.8555-3.7437 2.8555-2.5068 0-4.1089-1.8179-4.1089-4.665 0-2.7891 1.5938-4.5986 4.1006-4.5986 2.1748 0 3.5029 1.3032 3.752 2.897h-1.4443zm3.3506 9.3965v-1.2202c.1743.0332.3984.0415.5977.0415.8218 0 1.27-.3901 1.6436-1.4692l.166-.5312-3.312-8.9565h1.5439l2.457 7.3628h.1328l2.4487-7.3628h1.519l-3.4946 9.4961c-.7637 2.0752-1.4775 2.6895-3.063 2.6895-.1909-.0002-.4399-.0168-.6391-.05zm8.1338-5.6943c0-1.6021 1.1787-2.5234 3.2622-2.6479l2.5815-.1577v-.8136c0-1.104-.689-1.71-2.0254-1.71-1.0708 0-1.8179.4067-2.0171 1.1123h-1.4443c.1909-1.436 1.6021-2.3823 3.5112-2.3823 2.1831 0 3.4033 1.1206 3.4033 2.98v6.126h-1.3613v-1.3198h-.1328c-.5811.9546-1.5605 1.4775-2.7559 1.4775-1.7348 0-3.0214-1.0293-3.0214-2.6645zm5.8437-.8301v-.8218l-2.4072.1577c-1.3613.0913-1.959.5645-1.959 1.4609 0 .9131.772 1.4443 1.8096 1.4443 1.4692.0001 2.5566-.9628 2.5566-2.2411zm12.0098-1.1372c0 2.7974-1.4858 4.6318-3.7603 4.6318-1.2783 0-2.3076-.5562-2.7974-1.5024h-.1328v4.333h-1.4277v-11.9365h1.3613v1.4941h.1328c.5728-1.0293 1.6436-1.6519 2.8638-1.6519 2.2827 0 3.7603 1.8179 3.7603 4.6319zm-1.4776 0c0-2.0918-.9795-3.3452-2.6147-3.3452-1.6187 0-2.6396 1.2866-2.6396 3.3452 0 2.0503 1.021 3.3452 2.6313 3.3452 1.6435 0 2.623-1.2534 2.623-3.3452zm3.5298-4.4741h1.4277v2.8721h1.7681c2.0503 0 3.3618 1.1787 3.3618 3.0381s-1.3115 3.038-3.3618 3.038h-3.1958zm1.4277 4.0673v3.6855h1.7681c1.1787 0 1.9341-.7305 1.9341-1.8428 0-1.1206-.7637-1.8428-1.9341-1.8428h-1.7681zm6.3999-4.0673h1.4277v8.9482h-1.4277z" fill="#fff"/></svg>